<?xml version="1.0" encoding="UTF-8" ?>
<svg xmlns="http://www.w3.org/2000/svg" xmlns:xlink="http://www.w3.org/1999/xlink" width="288pt" height="404pt" viewBox="0.00 0.00 288.00 404.00">
<g id="graph0" class="graph" transform="scale(1 1) rotate(0) translate(4 400)">
<title>%0</title>
<polygon fill="#ffffff" stroke="transparent" points="-4,4 -4,-400 284,-400 284,4 -4,4"/>
<!-- omega1 -->
<g id="node1" class="node">
<title>omega1</title>
<ellipse fill="none" stroke="#c0c0c0" cx="118" cy="-378" rx="27" ry="18"/>
<text text-anchor="middle" x="118" y="-373.8" font-family="Times,serif" font-size="14.00" fill="#000000">ω1</text>
</g>
<!-- gamma -->
<g id="node2" class="node">
<title>gamma</title>
<ellipse fill="none" stroke="#c0c0c0" cx="82" cy="-306" rx="27" ry="18"/>
<text text-anchor="middle" x="82" y="-301.8" font-family="Times,serif" font-size="14.00" fill="#000000">γ</text>
</g>
<!-- omega1&#45;&gt;gamma -->
<g id="edge1" class="edge">
<title>omega1-&gt;gamma</title>
<path fill="none" stroke="#000000" d="M109.2854,-360.5708C105.0403,-352.0807 99.8464,-341.6929 95.1337,-332.2674"/>
<polygon fill="#000000" stroke="#000000" points="98.237,-330.6477 90.6343,-323.2687 91.976,-333.7782 98.237,-330.6477"/>
</g>
<!-- chi -->
<g id="node5" class="node">
<title>chi</title>
<ellipse fill="none" stroke="#c0c0c0" cx="154" cy="-306" rx="27" ry="18"/>
<text text-anchor="middle" x="154" y="-301.8" font-family="Times,serif" font-size="14.00" fill="#000000">χ</text>
</g>
<!-- omega1&#45;&gt;chi -->
<g id="edge4" class="edge">
<title>omega1-&gt;chi</title>
<path fill="none" stroke="#000000" d="M126.7146,-360.5708C130.9597,-352.0807 136.1536,-341.6929 140.8663,-332.2674"/>
<polygon fill="#000000" stroke="#000000" points="144.024,-333.7782 145.3657,-323.2687 137.763,-330.6477 144.024,-333.7782"/>
</g>
<!-- B -->
<g id="node3" class="node">
<title>B</title>
<ellipse fill="none" stroke="#000000" cx="27" cy="-162" rx="27" ry="18"/>
<text text-anchor="middle" x="27" y="-157.8" font-family="Times,serif" font-size="14.00" fill="#000000">B</text>
</g>
<!-- gamma&#45;&gt;B -->
<g id="edge2" class="edge">
<title>gamma-&gt;B</title>
<path fill="none" stroke="#000000" d="M68.9011,-289.9153C61.1559,-279.6387 51.7648,-265.7102 46,-252 37.6694,-232.1876 32.8467,-208.3321 30.1459,-190.1605"/>
<polygon fill="#000000" stroke="#000000" points="33.6059,-189.6289 28.7905,-180.1917 26.6698,-190.5721 33.6059,-189.6289"/>
</g>
<!-- P -->
<g id="node4" class="node">
<title>P</title>
<ellipse fill="none" stroke="#000000" cx="82" cy="-234" rx="27" ry="18"/>
<text text-anchor="middle" x="82" y="-229.8" font-family="Times,serif" font-size="14.00" fill="#000000">P</text>
</g>
<!-- gamma&#45;&gt;P -->
<g id="edge3" class="edge">
<title>gamma-&gt;P</title>
<path fill="none" stroke="#000000" d="M82,-287.8314C82,-280.131 82,-270.9743 82,-262.4166"/>
<polygon fill="#000000" stroke="#000000" points="85.5001,-262.4132 82,-252.4133 78.5001,-262.4133 85.5001,-262.4132"/>
</g>
<!-- A -->
<g id="node6" class="node">
<title>A</title>
<ellipse fill="none" stroke="#000000" cx="154" cy="-234" rx="27" ry="18"/>
<text text-anchor="middle" x="154" y="-229.8" font-family="Times,serif" font-size="14.00" fill="#000000">A</text>
</g>
<!-- chi&#45;&gt;A -->
<g id="edge5" class="edge">
<title>chi-&gt;A</title>
<path fill="none" stroke="#000000" d="M154,-287.8314C154,-280.131 154,-270.9743 154,-262.4166"/>
<polygon fill="#000000" stroke="#000000" points="157.5001,-262.4132 154,-252.4133 150.5001,-262.4133 157.5001,-262.4132"/>
</g>
<!-- alpha -->
<g id="node7" class="node">
<title>alpha</title>
<ellipse fill="none" stroke="#c0c0c0" cx="226" cy="-234" rx="27" ry="18"/>
<text text-anchor="middle" x="226" y="-229.8" font-family="Times,serif" font-size="14.00" fill="#000000">α</text>
</g>
<!-- chi&#45;&gt;alpha -->
<g id="edge6" class="edge">
<title>chi-&gt;alpha</title>
<path fill="none" stroke="#000000" d="M169.2693,-290.7307C179.197,-280.803 192.3153,-267.6847 203.4363,-256.5637"/>
<polygon fill="#000000" stroke="#000000" points="206.1564,-258.7933 210.7527,-249.2473 201.2067,-253.8436 206.1564,-258.7933"/>
</g>
<!-- R -->
<g id="node8" class="node">
<title>R</title>
<ellipse fill="none" stroke="#000000" cx="226" cy="-162" rx="27" ry="18"/>
<text text-anchor="middle" x="226" y="-157.8" font-family="Times,serif" font-size="14.00" fill="#000000">R</text>
</g>
<!-- alpha&#45;&gt;R -->
<g id="edge7" class="edge">
<title>alpha-&gt;R</title>
<path fill="none" stroke="#000000" d="M226,-215.8314C226,-208.131 226,-198.9743 226,-190.4166"/>
<polygon fill="#000000" stroke="#000000" points="229.5001,-190.4132 226,-180.4133 222.5001,-190.4133 229.5001,-190.4132"/>
</g>
<!-- U -->
<g id="node9" class="node">
<title>U</title>
<ellipse fill="none" stroke="#000000" cx="198" cy="-90" rx="27" ry="18"/>
<text text-anchor="middle" x="198" y="-85.8" font-family="Times,serif" font-size="14.00" fill="#000000">U</text>
</g>
<!-- R&#45;&gt;U -->
<g id="edge8" class="edge">
<title>R-&gt;U</title>
<path fill="none" stroke="#000000" d="M219.222,-144.5708C216.0128,-136.3187 212.1065,-126.2738 208.5242,-117.0623"/>
<polygon fill="#000000" stroke="#000000" points="211.6992,-115.5697 204.8126,-107.5182 205.1752,-118.1069 211.6992,-115.5697"/>
</g>
<!-- N -->
<g id="node10" class="node">
<title>N</title>
<ellipse fill="none" stroke="#000000" cx="253" cy="-18" rx="27" ry="18"/>
<text text-anchor="middle" x="253" y="-13.8" font-family="Times,serif" font-size="14.00" fill="#000000">N</text>
</g>
<!-- R&#45;&gt;N -->
<g id="edge9" class="edge">
<title>R-&gt;N</title>
<path fill="none" stroke="#000000" d="M229.365,-144.0535C233.973,-119.4774 242.2936,-75.1008 247.7317,-46.0974"/>
<polygon fill="#000000" stroke="#000000" points="251.1897,-46.6465 249.5926,-36.1727 244.3096,-45.3564 251.1897,-46.6465"/>
</g>
</g>
</svg>