<?xml version="1.0" encoding="UTF-8" ?>
<svg xmlns="http://www.w3.org/2000/svg" xmlns:xlink="http://www.w3.org/1999/xlink" width="247pt" height="554pt" viewBox="0.00 0.00 247.29 554.00">
<g id="graph0" class="graph" transform="scale(1 1) rotate(0) translate(4 550)">
<title>%0</title>
<polygon fill="#ffffff" stroke="transparent" points="-4,4 -4,-550 243.291,-550 243.291,4 -4,4"/>
<!-- capitalomega -->
<g id="node1" class="node">
<title>capitalomega</title>
<ellipse fill="none" stroke="#c0c0c0" cx="169.291" cy="-528" rx="27" ry="18"/>
<text text-anchor="middle" x="169.291" y="-523.8" font-family="Times,serif" font-size="14.00" fill="#000000">Ω</text>
</g>
<!-- 1 -->
<g id="node2" class="node">
<title>1</title>
<ellipse fill="none" stroke="#c0c0c0" cx="125.291" cy="-345" rx="27" ry="18"/>
</g>
<!-- capitalomega&#45;&gt;1 -->
<g id="edge1" class="edge">
<title>capitalomega-&gt;1</title>
<path fill="none" stroke="#000000" d="M164.992,-510.12C157.3031,-478.1412 141.1462,-410.943 131.9911,-372.8664"/>
<polygon fill="#000000" stroke="#000000" points="135.3483,-371.8573 129.6075,-362.9526 128.5423,-373.4937 135.3483,-371.8573"/>
</g>
<!-- R -->
<g id="node3" class="node">
<title>R</title>
<ellipse fill="none" stroke="#000000" cx="212.291" cy="-18" rx="27" ry="18"/>
<text text-anchor="middle" x="212.291" y="-13.8" font-family="Times,serif" font-size="14.00" fill="#000000">R</text>
</g>
<!-- capitalomega&#45;&gt;R -->
<g id="edge2" class="edge">
<title>capitalomega-&gt;R</title>
<path fill="none" stroke="#000000" d="M182.1924,-511.8742C194.8583,-494.382 212.291,-465.11 212.291,-436.5 212.291,-436.5 212.291,-436.5 212.291,-127 212.291,-99.6413 212.291,-68.42 212.291,-46.4245"/>
<polygon fill="#000000" stroke="#000000" points="215.7911,-46.1292 212.291,-36.1292 208.7911,-46.1292 215.7911,-46.1292"/>
</g>
<!-- M -->
<g id="node4" class="node">
<title>M</title>
<ellipse fill="none" stroke="#000000" cx="70.291" cy="-273" rx="27" ry="18"/>
<text text-anchor="middle" x="70.291" y="-268.8" font-family="Times,serif" font-size="14.00" fill="#000000">M</text>
</g>
<!-- 1&#45;&gt;M -->
<g id="edge3" class="edge">
<title>1-&gt;M</title>
<path fill="none" stroke="#000000" d="M112.8107,-328.6621C105.7786,-319.4564 96.8563,-307.7764 89.0027,-297.4953"/>
<polygon fill="#000000" stroke="#000000" points="91.5738,-295.0953 82.722,-289.2733 86.0111,-299.3446 91.5738,-295.0953"/>
</g>
<!-- codexLugdu -->
<g id="node5" class="node">
<title>codexLugdu</title>
<ellipse fill="none" stroke="#000000" cx="92.291" cy="-127" rx="92.0825" ry="18"/>
<text text-anchor="middle" x="92.291" y="-122.8" font-family="Times,serif" font-size="14.00" fill="#000000">(codex Lugdunensis)</text>
</g>
<!-- 1&#45;&gt;codexLugdu -->
<g id="edge4" class="edge">
<title>1-&gt;codexLugdu</title>
<path fill="none" stroke="#000000" d="M122.5342,-326.7884C116.7691,-288.704 103.4059,-200.4255 96.5364,-155.0455"/>
<polygon fill="#000000" stroke="#000000" points="99.9741,-154.3699 95.0168,-145.0064 93.053,-155.4177 99.9741,-154.3699"/>
</g>
<!-- T -->
<g id="node6" class="node">
<title>T</title>
<ellipse fill="none" stroke="#000000" cx="44.291" cy="-18" rx="27" ry="18"/>
<text text-anchor="middle" x="44.291" y="-13.8" font-family="Times,serif" font-size="14.00" fill="#000000">T</text>
</g>
<!-- codexLugdu&#45;&gt;T -->
<g id="edge5" class="edge">
<title>codexLugdu-&gt;T</title>
<path fill="none" stroke="#000000" d="M84.3648,-109.0009C76.6303,-91.4371 64.7738,-64.513 55.9617,-44.5021"/>
<polygon fill="#000000" stroke="#000000" points="59.1451,-43.0466 51.9117,-35.3052 52.7387,-45.8678 59.1451,-43.0466"/>
</g>
<!-- V -->
<g id="node7" class="node">
<title>V</title>
<ellipse fill="none" stroke="#000000" cx="116.291" cy="-18" rx="27" ry="18"/>
<text text-anchor="middle" x="116.291" y="-13.8" font-family="Times,serif" font-size="14.00" fill="#000000">V</text>
</g>
<!-- codexLugdu&#45;&gt;V -->
<g id="edge6" class="edge">
<title>codexLugdu-&gt;V</title>
<path fill="none" stroke="#000000" d="M96.2541,-109.0009C100.0235,-91.8816 105.7509,-65.8698 110.1183,-46.0345"/>
<polygon fill="#000000" stroke="#000000" points="113.5897,-46.5446 112.322,-36.0259 106.7535,-45.0393 113.5897,-46.5446"/>
</g>
</g>
</svg>