<?xml version="1.0" encoding="UTF-8" ?>
<svg xmlns="http://www.w3.org/2000/svg" xmlns:xlink="http://www.w3.org/1999/xlink" width="342pt" height="729pt" viewBox="0.00 0.00 341.94 729.00">
<g id="graph0" class="graph" transform="scale(1 1) rotate(0) translate(4 725)">
<title>%0</title>
<polygon fill="#ffffff" stroke="transparent" points="-4,4 -4,-725 337.9355,-725 337.9355,4 -4,4"/>
<!-- capitalomega -->
<g id="node1" class="node">
<title>capitalomega</title>
<ellipse fill="none" stroke="#c0c0c0" cx="139" cy="-703" rx="27" ry="18"/>
<text text-anchor="middle" x="139" y="-698.8" font-family="Times,serif" font-size="14.00" fill="#000000">Ω</text>
</g>
<!-- omega -->
<g id="node2" class="node">
<title>omega</title>
<ellipse fill="none" stroke="#c0c0c0" cx="139" cy="-631" rx="27" ry="18"/>
<text text-anchor="middle" x="139" y="-626.8" font-family="Times,serif" font-size="14.00" fill="#000000">ω</text>
</g>
<!-- capitalomega&#45;&gt;omega -->
<g id="edge1" class="edge">
<title>capitalomega-&gt;omega</title>
<path fill="none" stroke="#000000" d="M139,-684.8314C139,-677.131 139,-667.9743 139,-659.4166"/>
<polygon fill="#000000" stroke="#000000" points="142.5001,-659.4132 139,-649.4133 135.5001,-659.4133 142.5001,-659.4132"/>
</g>
<!-- R -->
<g id="node3" class="node">
<title>R</title>
<ellipse fill="none" stroke="#000000" cx="176" cy="-559" rx="27" ry="18"/>
<text text-anchor="middle" x="176" y="-554.8" font-family="Times,serif" font-size="14.00" fill="#000000">R</text>
</g>
<!-- omega&#45;&gt;R -->
<g id="edge2" class="edge">
<title>omega-&gt;R</title>
<path fill="none" stroke="#000000" d="M147.7685,-613.937C152.1279,-605.4537 157.4953,-595.0092 162.3753,-585.513"/>
<polygon fill="#000000" stroke="#000000" points="165.5797,-586.9348 167.0374,-576.4407 159.3537,-583.7352 165.5797,-586.9348"/>
</g>
<!-- FloroofLyon -->
<g id="node4" class="node">
<title>FloroofLyon</title>
<ellipse fill="none" stroke="#000000" cx="93" cy="-487" rx="65.4343" ry="18"/>
<text text-anchor="middle" x="93" y="-482.8" font-family="Times,serif" font-size="14.00" fill="#000000">Floro of Lyon</text>
</g>
<!-- omega&#45;&gt;FloroofLyon -->
<g id="edge3" class="edge">
<title>omega-&gt;FloroofLyon</title>
<path fill="none" stroke="#000000" d="M133.3595,-613.3428C125.5049,-588.7545 111.1927,-543.9511 101.8932,-514.8397"/>
<polygon fill="#000000" stroke="#000000" points="105.2088,-513.7167 98.8318,-505.256 98.5408,-515.8468 105.2088,-513.7167"/>
</g>
<!-- R&#45;&gt;FloroofLyon -->
<g id="edge4" class="edge">
<title>R-&gt;FloroofLyon</title>
<path fill="none" stroke="#000000" d="M159.2037,-544.4297C148.1416,-534.8337 133.3976,-522.0437 120.6318,-510.9697"/>
<polygon fill="#000000" stroke="#000000" points="122.8369,-508.2492 112.9895,-504.3403 118.2499,-513.537 122.8369,-508.2492"/>
</g>
<!-- G -->
<g id="node7" class="node">
<title>G</title>
<ellipse fill="none" stroke="#000000" cx="181" cy="-415" rx="27" ry="18"/>
<text text-anchor="middle" x="181" y="-410.8" font-family="Times,serif" font-size="14.00" fill="#000000">G</text>
</g>
<!-- R&#45;&gt;G -->
<g id="edge7" class="edge">
<title>R-&gt;G</title>
<path fill="none" stroke="#000000" d="M176.6333,-540.7623C177.4861,-516.201 179.0122,-472.2474 180.0155,-443.3541"/>
<polygon fill="#000000" stroke="#000000" points="183.5227,-443.2051 180.3719,-433.0896 176.5269,-442.9621 183.5227,-443.2051"/>
</g>
<!-- Tilius -->
<g id="node9" class="node">
<title>Tilius</title>
<ellipse fill="none" stroke="#000000" cx="236" cy="-234" rx="97.871" ry="18"/>
<text text-anchor="middle" x="236" y="-229.8" font-family="Times,serif" font-size="14.00" fill="#000000">edition princeps Tilius</text>
</g>
<!-- R&#45;&gt;Tilius -->
<g id="edge9" class="edge">
<title>R-&gt;Tilius</title>
<path fill="none" stroke="#000000" d="M187.8541,-542.6406C205.3399,-516.8503 236,-464.5625 236,-415 236,-415 236,-415 236,-343 236,-315.6413 236,-284.42 236,-262.4245"/>
<polygon fill="#000000" stroke="#000000" points="239.5001,-262.1292 236,-252.1292 232.5001,-262.1292 239.5001,-262.1292"/>
</g>
<!-- L -->
<g id="node5" class="node">
<title>L</title>
<ellipse fill="none" stroke="#000000" cx="27" cy="-415" rx="27" ry="18"/>
<text text-anchor="middle" x="27" y="-410.8" font-family="Times,serif" font-size="14.00" fill="#000000">L</text>
</g>
<!-- FloroofLyon&#45;&gt;L -->
<g id="edge5" class="edge">
<title>FloroofLyon-&gt;L</title>
<path fill="none" stroke="#000000" d="M76.6854,-469.2022C68.1311,-459.8703 57.5469,-448.3239 48.3484,-438.2892"/>
<polygon fill="#000000" stroke="#000000" points="50.6711,-435.6433 41.3337,-430.6368 45.511,-440.3734 50.6711,-435.6433"/>
</g>
<!-- V -->
<g id="node6" class="node">
<title>V</title>
<ellipse fill="none" stroke="#000000" cx="99" cy="-415" rx="27" ry="18"/>
<text text-anchor="middle" x="99" y="-410.8" font-family="Times,serif" font-size="14.00" fill="#000000">V</text>
</g>
<!-- FloroofLyon&#45;&gt;V -->
<g id="edge6" class="edge">
<title>FloroofLyon-&gt;V</title>
<path fill="none" stroke="#000000" d="M94.5141,-468.8314C95.1558,-461.131 95.9188,-451.9743 96.6319,-443.4166"/>
<polygon fill="#000000" stroke="#000000" points="100.1229,-443.6694 97.4656,-433.4133 93.1471,-443.088 100.1229,-443.6694"/>
</g>
<!-- P -->
<g id="node8" class="node">
<title>P</title>
<ellipse fill="none" stroke="#000000" cx="181" cy="-343" rx="27" ry="18"/>
<text text-anchor="middle" x="181" y="-338.8" font-family="Times,serif" font-size="14.00" fill="#000000">P</text>
</g>
<!-- G&#45;&gt;P -->
<g id="edge8" class="edge">
<title>G-&gt;P</title>
<path fill="none" stroke="#000000" d="M181,-396.8314C181,-389.131 181,-379.9743 181,-371.4166"/>
<polygon fill="#000000" stroke="#000000" points="184.5001,-371.4132 181,-361.4133 177.5001,-371.4133 184.5001,-371.4132"/>
</g>
<!-- Bigne -->
<g id="node10" class="node">
<title>Bigne</title>
<ellipse fill="none" stroke="#000000" cx="186" cy="-162" rx="55.6649" ry="18"/>
<text text-anchor="middle" x="186" y="-157.8" font-family="Times,serif" font-size="14.00" fill="#000000">Bigne 1575</text>
</g>
<!-- Tilius&#45;&gt;Bigne -->
<g id="edge10" class="edge">
<title>Tilius-&gt;Bigne</title>
<path fill="none" stroke="#000000" d="M223.3829,-215.8314C217.5951,-207.497 210.6227,-197.4567 204.2751,-188.3162"/>
<polygon fill="#000000" stroke="#000000" points="207.0187,-186.1307 198.4399,-179.9134 201.2691,-190.1235 207.0187,-186.1307"/>
</g>
<!-- B -->
<g id="node13" class="node">
<title>B</title>
<ellipse fill="none" stroke="#000000" cx="287" cy="-162" rx="27" ry="18"/>
<text text-anchor="middle" x="287" y="-157.8" font-family="Times,serif" font-size="14.00" fill="#000000">B</text>
</g>
<!-- Tilius&#45;&gt;B -->
<g id="edge13" class="edge">
<title>Tilius-&gt;B</title>
<path fill="none" stroke="#000000" d="M248.8695,-215.8314C255.105,-207.0283 262.6885,-196.3221 269.4452,-186.7832"/>
<polygon fill="#000000" stroke="#000000" points="272.4314,-188.6226 275.3555,-178.4393 266.7192,-184.5765 272.4314,-188.6226"/>
</g>
<!-- Bignebis -->
<g id="node11" class="node">
<title>Bignebis</title>
<ellipse fill="none" stroke="#000000" cx="186" cy="-90" rx="55.6649" ry="18"/>
<text text-anchor="middle" x="186" y="-85.8" font-family="Times,serif" font-size="14.00" fill="#000000">Bigne 1677</text>
</g>
<!-- Bigne&#45;&gt;Bignebis -->
<g id="edge11" class="edge">
<title>Bigne-&gt;Bignebis</title>
<path fill="none" stroke="#000000" d="M186,-143.8314C186,-136.131 186,-126.9743 186,-118.4166"/>
<polygon fill="#000000" stroke="#000000" points="189.5001,-118.4132 186,-108.4133 182.5001,-118.4133 189.5001,-118.4132"/>
</g>
<!-- M -->
<g id="node12" class="node">
<title>M</title>
<ellipse fill="none" stroke="#000000" cx="186" cy="-18" rx="27" ry="18"/>
<text text-anchor="middle" x="186" y="-13.8" font-family="Times,serif" font-size="14.00" fill="#000000">M</text>
</g>
<!-- Bignebis&#45;&gt;M -->
<g id="edge12" class="edge">
<title>Bignebis-&gt;M</title>
<path fill="none" stroke="#000000" d="M186,-71.8314C186,-64.131 186,-54.9743 186,-46.4166"/>
<polygon fill="#000000" stroke="#000000" points="189.5001,-46.4132 186,-36.4133 182.5001,-46.4133 189.5001,-46.4132"/>
</g>
</g>
</svg>