<?xml version="1.0" encoding="UTF-8" ?>
<svg xmlns="http://www.w3.org/2000/svg" xmlns:xlink="http://www.w3.org/1999/xlink" width="299pt" height="441pt" viewBox="0.00 0.00 299.00 441.00">
<g id="graph0" class="graph" transform="scale(1 1) rotate(0) translate(4 437)">
<title>%0</title>
<polygon fill="#ffffff" stroke="transparent" points="-4,4 -4,-437 295,-437 295,4 -4,4"/>
<!-- A -->
<g id="node1" class="node">
<title>A</title>
<ellipse fill="none" stroke="#c0c0c0" cx="109" cy="-415" rx="27" ry="18"/>
<text text-anchor="middle" x="109" y="-410.8" font-family="Times,serif" font-size="14.00" fill="#000000">A</text>
</g>
<!-- omega -->
<g id="node2" class="node">
<title>omega</title>
<ellipse fill="none" stroke="#c0c0c0" cx="109" cy="-343" rx="27" ry="18"/>
<text text-anchor="middle" x="109" y="-338.8" font-family="Times,serif" font-size="14.00" fill="#000000">ω</text>
</g>
<!-- A&#45;&gt;omega -->
<g id="edge1" class="edge">
<title>A-&gt;omega</title>
<path fill="none" stroke="#000000" d="M109,-396.8314C109,-389.131 109,-379.9743 109,-371.4166"/>
<polygon fill="#000000" stroke="#000000" points="112.5001,-371.4132 109,-361.4133 105.5001,-371.4133 112.5001,-371.4132"/>
</g>
<!-- sigma -->
<g id="node3" class="node">
<title>sigma</title>
<ellipse fill="none" stroke="#000000" cx="27" cy="-271" rx="27" ry="18"/>
<text text-anchor="middle" x="27" y="-266.8" font-family="Times,serif" font-size="14.00" fill="#000000">Σ</text>
</g>
<!-- omega&#45;&gt;sigma -->
<g id="edge2" class="edge">
<title>omega-&gt;sigma</title>
<path fill="none" stroke="#000000" d="M92.4061,-328.4297C80.6246,-318.0851 64.616,-304.0286 51.3855,-292.4116"/>
<polygon fill="#000000" stroke="#000000" points="53.393,-289.5166 43.5692,-285.5486 48.7744,-294.7767 53.393,-289.5166"/>
</g>
<!-- psi -->
<g id="node4" class="node">
<title>psi</title>
<ellipse fill="none" stroke="#000000" cx="82" cy="-18" rx="27" ry="18"/>
<text text-anchor="middle" x="82" y="-13.8" font-family="Times,serif" font-size="14.00" fill="#000000">Ψ</text>
</g>
<!-- omega&#45;&gt;psi -->
<g id="edge3" class="edge">
<title>omega-&gt;psi</title>
<path fill="none" stroke="#000000" d="M103.4056,-325.0177C95.4971,-297.9603 82,-245.0385 82,-199 82,-199 82,-199 82,-144.5 82,-110.6788 82,-71.7713 82,-46.136"/>
<polygon fill="#000000" stroke="#000000" points="85.5001,-46.0155 82,-36.0155 78.5001,-46.0156 85.5001,-46.0155"/>
</g>
<!-- 1 -->
<g id="node5" class="node">
<title>1</title>
<ellipse fill="none" stroke="#c0c0c0" cx="137" cy="-271" rx="27" ry="18"/>
</g>
<!-- omega&#45;&gt;1 -->
<g id="edge4" class="edge">
<title>omega-&gt;1</title>
<path fill="none" stroke="#000000" d="M115.778,-325.5708C118.9872,-317.3187 122.8935,-307.2738 126.4758,-298.0623"/>
<polygon fill="#000000" stroke="#000000" points="129.8248,-299.1069 130.1874,-288.5182 123.3008,-296.5697 129.8248,-299.1069"/>
</g>
<!-- upsilon -->
<g id="node8" class="node">
<title>upsilon</title>
<ellipse fill="none" stroke="#000000" cx="264" cy="-199" rx="27" ry="18"/>
<text text-anchor="middle" x="264" y="-194.8" font-family="Times,serif" font-size="14.00" fill="#000000">Υ</text>
</g>
<!-- omega&#45;&gt;upsilon -->
<g id="edge7" class="edge">
<title>omega-&gt;upsilon</title>
<path fill="none" stroke="#000000" d="M126.4302,-328.9213C139.4818,-318.2295 157.653,-303.0234 173,-289 197.2566,-266.8354 223.8536,-240.2472 241.9937,-221.7414"/>
<polygon fill="#000000" stroke="#000000" points="244.7369,-223.9418 249.2188,-214.3416 239.7284,-219.0515 244.7369,-223.9418"/>
</g>
<!-- X -->
<g id="node6" class="node">
<title>X</title>
<ellipse fill="none" stroke="#000000" cx="137" cy="-90" rx="27" ry="18"/>
<text text-anchor="middle" x="137" y="-85.8" font-family="Times,serif" font-size="14.00" fill="#000000">X</text>
</g>
<!-- 1&#45;&gt;X -->
<g id="edge5" class="edge">
<title>1-&gt;X</title>
<path fill="none" stroke="#000000" d="M137,-252.9833C137,-221.4877 137,-156.1909 137,-118.5061"/>
<polygon fill="#000000" stroke="#000000" points="140.5001,-118.2124 137,-108.2125 133.5001,-118.2125 140.5001,-118.2124"/>
</g>
<!-- phi -->
<g id="node7" class="node">
<title>phi</title>
<ellipse fill="none" stroke="#000000" cx="192" cy="-199" rx="27" ry="18"/>
<text text-anchor="middle" x="192" y="-194.8" font-family="Times,serif" font-size="14.00" fill="#000000">φ</text>
</g>
<!-- 1&#45;&gt;phi -->
<g id="edge6" class="edge">
<title>1-&gt;phi</title>
<path fill="none" stroke="#000000" d="M149.4804,-254.6621C156.5124,-245.4564 165.4347,-233.7764 173.2883,-223.4953"/>
<polygon fill="#000000" stroke="#000000" points="176.28,-225.3446 179.569,-215.2733 170.7172,-221.0953 176.28,-225.3446"/>
</g>
</g>
</svg>