<?xml version="1.0" encoding="UTF-8" ?>
<svg xmlns="http://www.w3.org/2000/svg" xmlns:xlink="http://www.w3.org/1999/xlink" width="417pt" height="585pt" viewBox="0.00 0.00 417.00 585.00">
<g id="graph0" class="graph" transform="scale(1 1) rotate(0) translate(4 581)">
<title>%0</title>
<polygon fill="#ffffff" stroke="transparent" points="-4,4 -4,-581 413,-581 413,4 -4,4"/>
<!-- omega -->
<g id="node1" class="node">
<title>omega</title>
<ellipse fill="none" stroke="#c0c0c0" cx="90" cy="-559" rx="27" ry="18"/>
<text text-anchor="middle" x="90" y="-554.8" font-family="Times,serif" font-size="14.00" fill="#000000">ω</text>
</g>
<!-- A -->
<g id="node2" class="node">
<title>A</title>
<ellipse fill="none" stroke="#000000" cx="27" cy="-415" rx="27" ry="18"/>
<text text-anchor="middle" x="27" y="-410.8" font-family="Times,serif" font-size="14.00" fill="#000000">A</text>
</g>
<!-- omega&#45;&gt;A -->
<g id="edge1" class="edge">
<title>omega-&gt;A</title>
<path fill="none" stroke="#000000" d="M82.4007,-541.6302C71.5217,-516.7638 51.4157,-470.8072 38.6501,-441.6288"/>
<polygon fill="#000000" stroke="#000000" points="41.841,-440.1901 34.6262,-432.4314 35.4279,-442.9958 41.841,-440.1901"/>
</g>
<!-- Y -->
<g id="node4" class="node">
<title>Y</title>
<ellipse fill="none" stroke="#c0c0c0" cx="126" cy="-487" rx="27" ry="18"/>
<text text-anchor="middle" x="126" y="-482.8" font-family="Times,serif" font-size="14.00" fill="#000000">Y</text>
</g>
<!-- omega&#45;&gt;Y -->
<g id="edge3" class="edge">
<title>omega-&gt;Y</title>
<path fill="none" stroke="#000000" d="M98.7146,-541.5708C102.9597,-533.0807 108.1536,-522.6929 112.8663,-513.2674"/>
<polygon fill="#000000" stroke="#000000" points="116.024,-514.7782 117.3657,-504.2687 109.763,-511.6477 116.024,-514.7782"/>
</g>
<!-- S -->
<g id="node3" class="node">
<title>S</title>
<ellipse fill="none" stroke="#000000" cx="27" cy="-18" rx="27" ry="18"/>
<text text-anchor="middle" x="27" y="-13.8" font-family="Times,serif" font-size="14.00" fill="#000000">S</text>
</g>
<!-- A&#45;&gt;S -->
<g id="edge2" class="edge">
<title>A-&gt;S</title>
<path fill="none" stroke="#000000" d="M27,-396.9845C27,-372.449 27,-327.1528 27,-288.5 27,-288.5 27,-288.5 27,-162 27,-121.876 27,-75.4631 27,-46.4177"/>
<polygon fill="#000000" stroke="#000000" points="30.5001,-46.1853 27,-36.1854 23.5001,-46.1854 30.5001,-46.1853"/>
</g>
<!-- B -->
<g id="node5" class="node">
<title>B</title>
<ellipse fill="none" stroke="#000000" cx="99" cy="-415" rx="27" ry="18"/>
<text text-anchor="middle" x="99" y="-410.8" font-family="Times,serif" font-size="14.00" fill="#000000">B</text>
</g>
<!-- Y&#45;&gt;B -->
<g id="edge4" class="edge">
<title>Y-&gt;B</title>
<path fill="none" stroke="#000000" d="M119.3258,-469.2022C116.2524,-461.0064 112.5384,-451.1024 109.1305,-442.0145"/>
<polygon fill="#000000" stroke="#000000" points="112.3858,-440.7274 105.5974,-432.593 105.8315,-443.1853 112.3858,-440.7274"/>
</g>
<!-- C -->
<g id="node6" class="node">
<title>C</title>
<ellipse fill="none" stroke="#000000" cx="154" cy="-234" rx="27" ry="18"/>
<text text-anchor="middle" x="154" y="-229.8" font-family="Times,serif" font-size="14.00" fill="#000000">C</text>
</g>
<!-- Y&#45;&gt;C -->
<g id="edge5" class="edge">
<title>Y-&gt;C</title>
<path fill="none" stroke="#000000" d="M129.3157,-469.047C131.1709,-458.5626 133.4209,-445.0626 135,-433 142.9472,-372.2922 148.9641,-300.7523 151.9371,-262.1386"/>
<polygon fill="#000000" stroke="#000000" points="155.4277,-262.3931 152.694,-252.157 148.4478,-261.8637 155.4277,-262.3931"/>
</g>
<!-- Z -->
<g id="node7" class="node">
<title>Z</title>
<ellipse fill="none" stroke="#c0c0c0" cx="255" cy="-415" rx="27" ry="18"/>
<text text-anchor="middle" x="255" y="-410.8" font-family="Times,serif" font-size="14.00" fill="#000000">Z</text>
</g>
<!-- Y&#45;&gt;Z -->
<g id="edge6" class="edge">
<title>Y-&gt;Z</title>
<path fill="none" stroke="#000000" d="M146.7261,-475.432C167.8521,-463.6407 200.8408,-445.2284 224.8562,-431.8244"/>
<polygon fill="#000000" stroke="#000000" points="226.8706,-434.7084 233.8968,-426.7785 223.459,-428.596 226.8706,-434.7084"/>
</g>
<!-- O -->
<g id="node8" class="node">
<title>O</title>
<ellipse fill="none" stroke="#000000" cx="209" cy="-90" rx="27" ry="18"/>
<text text-anchor="middle" x="209" y="-85.8" font-family="Times,serif" font-size="14.00" fill="#000000">O</text>
</g>
<!-- Z&#45;&gt;O -->
<g id="edge7" class="edge">
<title>Z-&gt;O</title>
<path fill="none" stroke="#000000" d="M244.5619,-398.1121C230.99,-374.5009 209,-329.8627 209,-288.5 209,-288.5 209,-288.5 209,-234 209,-193.876 209,-147.4631 209,-118.4177"/>
<polygon fill="#000000" stroke="#000000" points="212.5001,-118.1853 209,-108.1854 205.5001,-118.1854 212.5001,-118.1853"/>
</g>
<!-- P -->
<g id="node9" class="node">
<title>P</title>
<ellipse fill="none" stroke="#000000" cx="264" cy="-162" rx="27" ry="18"/>
<text text-anchor="middle" x="264" y="-157.8" font-family="Times,serif" font-size="14.00" fill="#000000">P</text>
</g>
<!-- Z&#45;&gt;P -->
<g id="edge8" class="edge">
<title>Z-&gt;P</title>
<path fill="none" stroke="#000000" d="M255.6473,-396.8049C257.1976,-353.2243 261.1326,-242.6049 262.9944,-190.2685"/>
<polygon fill="#000000" stroke="#000000" points="266.5008,-190.1484 263.3586,-180.0303 259.5052,-189.8995 266.5008,-190.1484"/>
</g>
<!-- R -->
<g id="node10" class="node">
<title>R</title>
<ellipse fill="none" stroke="#000000" cx="310" cy="-343" rx="27" ry="18"/>
<text text-anchor="middle" x="310" y="-338.8" font-family="Times,serif" font-size="14.00" fill="#000000">R</text>
</g>
<!-- Z&#45;&gt;R -->
<g id="edge9" class="edge">
<title>Z-&gt;R</title>
<path fill="none" stroke="#000000" d="M267.4804,-398.6621C274.5124,-389.4564 283.4347,-377.7764 291.2883,-367.4953"/>
<polygon fill="#000000" stroke="#000000" points="294.28,-369.3446 297.569,-359.2733 288.7172,-365.0953 294.28,-369.3446"/>
</g>
<!-- V -->
<g id="node11" class="node">
<title>V</title>
<ellipse fill="none" stroke="#000000" cx="382" cy="-343" rx="27" ry="18"/>
<text text-anchor="middle" x="382" y="-338.8" font-family="Times,serif" font-size="14.00" fill="#000000">V</text>
</g>
<!-- Z&#45;&gt;V -->
<g id="edge10" class="edge">
<title>Z-&gt;V</title>
<path fill="none" stroke="#000000" d="M275.6874,-403.2717C296.5363,-391.4519 328.9107,-373.0979 352.4583,-359.7481"/>
<polygon fill="#000000" stroke="#000000" points="354.3484,-362.6999 361.3215,-354.7233 350.896,-356.6104 354.3484,-362.6999"/>
</g>
</g>
</svg>